<?xml version="1.0" encoding="UTF-8" standalone="no"?>
<svg
   width="100"
   height="100"
   enable-background="new 0 0 100 100"
   version="1.1"
   xml:space="preserve"
   id="svg1"
   xmlns="http://www.w3.org/2000/svg"
   xmlns:svg="http://www.w3.org/2000/svg"><defs
   id="defs1" />
 <style
   type="text/css"
   id="style1">.st0{fill:none;}</style>
 <g
   class="layer"
   id="g1">
  <title
   id="title1">Layer 1</title>
  <path
   d="m 59.35,42.1 c -0.3,0 -0.6,-0.1 -0.9,-0.1 -4.7,0 -8.6,3.9 -8.6,8.6 0,0.5 0.1,1.1 0.2,1.6 0.8,4 4.3,7 8.4,7 4.7,0 8.6,-3.9 8.6,-8.6 0,-4.4 -3.4,-8.1 -7.7,-8.5 z m -0.9,11.5 c -1.5,0 -2.7,-1 -2.9,-2.4 0,-0.2 -0.1,-0.4 -0.1,-0.6 0,-1.7 1.3,-3 3,-3 0.1,0 0.2,0 0.3,0 1.5,0.2 2.7,1.4 2.7,3 0,1.7 -1.3,3 -3,3 z"
   id="svg_1" />
  <path
   class="st0"
   d="m 81.9,74.1 c 0,1.7 -1.3,3 -3,3 -1.5,0 -2.7,-1 -2.9,-2.4 l 2.9,-0.6 0.3,-3 c 1.6,0.2 2.7,1.4 2.7,3 z"
   id="svg_2" />
  <path
   d="m 76.2,16 c -2.9,0 -5.5,1.5 -7.1,3.7 -0.8,1.1 -1.3,2.3 -1.5,3.7 -0.1,0.4 -0.1,0.8 -0.1,1.2 0,4.4 3.4,8.1 7.7,8.5 0.3,0 0.6,0 0.9,0 4.7,0 8.6,-3.9 8.6,-8.6 0,-4.7 -3.8,-8.5 -8.5,-8.5 z m 0,11.6 c -0.1,0 -0.2,0 -0.3,0 -1.5,-0.1 -2.7,-1.4 -2.7,-3 0,-0.1 0,-0.3 0,-0.4 0.1,-0.5 0.2,-0.9 0.5,-1.3 0.5,-0.8 1.4,-1.3 2.5,-1.3 1.7,0 3,1.3 3,3 0,1.7 -1.3,3 -3,3 z"
   id="svg_3" />
  <path
   class="st0"
   d="m 84.9,46.3 c 0,1.7 -1.3,3 -3,3 -0.1,0 -0.2,0 -0.3,0 l 0.3,-3 -2.5,-1.7 c 0.5,-0.8 1.4,-1.3 2.5,-1.3 1.7,0 3,1.3 3,3 z"
   id="svg_4" />
  <path
   class="st0"
   d="m 81.9,46.3 -3,-0.4 C 79,45.4 79.1,45 79.4,44.6 Z"
   id="svg_5" />
  <path
   class="st0"
   d="m 42.8,17.3 c 0,0.6 -0.2,1.1 -0.5,1.6 L 40,17.3 37.8,19.6 37.6,19.4 c -0.5,-0.5 -0.8,-1.3 -0.8,-2.1 0,-1.7 1.3,-3 3,-3 1.7,0 3,1.3 3,3 z"
   id="svg_7" />
  <path
   class="st0"
   d="m 42.3,19 c -0.2,0.4 -0.5,0.7 -0.9,0.9 L 40,17.3 Z"
   id="svg_8" />
  <path
   class="st0"
   d="m 40.9,60.7 c -0.3,0.1 -0.7,0.2 -1.1,0.2 -1.7,0 -3,-1.3 -3,-3 0,-1 0.4,-1.8 1.1,-2.4 l 1.9,2.4 z"
   id="svg_12" />
  <path
   d="m 84.62,75 c -0.8,-4 -4.3,-7 -8.5,-7 -1.1,0 -2.2,0.2 -3.2,0.6 -3.1,1.3 -5.4,4.4 -5.4,8 0,4.7 3.9,8.6 8.6,8.6 4.7,0 8.6,-3.9 8.6,-8.6 0.1,-0.6 0,-1.1 -0.1,-1.6 z m -8.4,4.6 c -1.7,0 -3,-1.3 -3,-3 0,-1.3 0.8,-2.4 1.9,-2.8 0.3,-0.1 0.7,-0.2 1.1,-0.2 1.5,0 2.7,1 3,2.4 0,0.2 0,0.4 0,0.6 0,1.7 -1.3,3 -3,3 z"
   id="svg_13" />
  <path
   class="st0"
   d="m 51.6,79.8 c 0,1.7 -1.3,3 -3,3 -1.7,0 -3,-1.3 -3,-3 0,-1.3 0.8,-2.4 1.9,-2.8 l 1.1,2.8 3,-0.6 c 0,0.2 0,0.4 0,0.6 z"
   id="svg_14" />
  
  
  <path
   d="m 23.48,16 c -4.7,0 -8.6,3.9 -8.6,8.6 0,1.6 0.5,3.1 1.2,4.4 0.4,0.7 1,1.4 1.6,1.9 0.6,0.6 1.3,1 2.1,1.4 1.1,0.5 2.3,0.8 3.6,0.8 1.6,0 3.1,-0.5 4.4,-1.2 1.1,-0.7 2,-1.5 2.7,-2.6 0.9,-1.4 1.5,-3 1.5,-4.8 0.1,-4.6 -3.8,-8.5 -8.5,-8.5 z m 1.6,11.2 c -0.5,0.3 -1,0.5 -1.6,0.5 -0.8,0 -1.4,-0.2 -2,-0.7 l -0.2,-0.2 c -0.5,-0.5 -0.8,-1.3 -0.8,-2.1 0,-1.7 1.3,-3 3,-3 1.7,0 3,1.3 3,3 0,0.6 -0.2,1.1 -0.5,1.6 -0.2,0.3 -0.5,0.6 -0.9,0.9 z"
   id="svg_6" />
  <path
   class="st0"
   d="m 16.76,24.68 1.9,2.4 c -0.5,0.4 -1.1,0.6 -1.9,0.6 -1.7,0 -3,-1.3 -3,-3 0,-1.7 1.3,-3 3,-3 0.8,0 1.5,0.3 2.1,0.8 z"
   id="svg_10" />
  <path
   d="m 23.43,68.06 c -2,0 -3.8,0.7 -5.3,1.9 -2,1.6 -3.3,4 -3.3,6.7 0,4.7 3.9,8.6 8.6,8.6 1.1,0 2.2,-0.2 3.2,-0.6 3.1,-1.3 5.4,-4.4 5.4,-8 0,-4.7 -3.9,-8.6 -8.6,-8.6 z m 0,11.6 c -1.7,0 -3,-1.3 -3,-3 0,-1 0.4,-1.8 1.1,-2.4 0.5,-0.4 1.2,-0.6 1.9,-0.6 1.7,0 3,1.3 3,3 0,1.3 -0.8,2.4 -1.9,2.8 -0.4,0.1 -0.7,0.2 -1.1,0.2 z"
   id="svg_11" />
  
  
  
 <path
   style="fill:none;stroke:#000000;stroke-width:5;stroke-dasharray:none;stroke-opacity:1"
   d="M 29.115977,23.600973 C 42.257128,14.876465 56.027739,10.390328 72.384428,23.317111"
   id="path2" /><path
   style="fill:none;stroke:#000000;stroke-width:5;stroke-dasharray:none;stroke-opacity:1"
   d="M 73.884834,28.710462 61.313869,46.22871"
   id="path3" /><path
   style="fill:none;stroke:#000000;stroke-width:5;stroke-dasharray:none;stroke-opacity:1"
   d="m 61.962693,55.39335 c 4.425351,7.987185 24.341148,6.947783 17.193836,16.301703"
   id="path4" /><path
   style="fill:none;stroke:#000000;stroke-width:5;stroke-dasharray:none;stroke-opacity:1"
   d="M 70.154096,76.155718 C 51.730838,75.103307 44.88112,103.17721 27.250608,80.291971"
   id="path5" /><path
   style="fill:none;stroke:#000000;stroke-width:5;stroke-dasharray:none;stroke-opacity:1"
   d="M 19.46472,72.587186 C 9.7356869,66.318949 12.163645,49.44093 21.248986,29.115977"
   id="path6" /></g>
</svg>
