<svg width="100" height="100" xmlns="http://www.w3.org/2000/svg" xmlns:svg="http://www.w3.org/2000/svg" enable-background="new 0 0 100 100" version="1.1" xml:space="preserve">
<style type="text/css">.st0{fill:none;}</style>
	<g class="layer">
	<title>Layer 1</title>
	<path id="svg_1" d="M59.3,42.1c-0.3,0-0.6-0.1-0.9-0.1c-4.7,0-8.6,3.9-8.6,8.6c0,0.5,0.1,1.1,0.2,1.6c0.8,4,4.3,7,8.4,7
		c4.7,0,8.6-3.9,8.6-8.6C67,46.2,63.6,42.5,59.3,42.1z M58.4,53.6c-1.5,0-2.7-1-2.9-2.4c0-0.2-0.1-0.4-0.1-0.6c0-1.7,1.3-3,3-3
		c0.1,0,0.2,0,0.3,0c1.5,0.2,2.7,1.4,2.7,3C61.4,52.3,60.1,53.6,58.4,53.6z"/>
	<path id="svg_3" d="M76.2,16c-2.9,0-5.5,1.5-7.1,3.7c-0.8,1.1-1.3,2.3-1.5,3.7c-0.1,0.4-0.1,0.8-0.1,1.2c0,4.4,3.4,8.1,7.7,8.5
		c0.3,0,0.6,0,0.9,0c4.7,0,8.6-3.9,8.6-8.6S80.9,16,76.2,16z M76.2,27.6c-0.1,0-0.2,0-0.3,0c-1.5-0.1-2.7-1.4-2.7-3
		c0-0.1,0-0.3,0-0.4c0.1-0.5,0.2-0.9,0.5-1.3c0.5-0.8,1.4-1.3,2.5-1.3c1.7,0,3,1.3,3,3S77.9,27.6,76.2,27.6z"/>
	<path id="svg_13" d="M84.6,75c-0.8-4-4.3-7-8.5-7c-1.1,0-2.2,0.2-3.2,0.6c-3.1,1.3-5.4,4.4-5.4,8c0,4.7,3.9,8.6,8.6,8.6
		s8.6-3.9,8.6-8.6C84.8,76,84.7,75.5,84.6,75z M76.2,79.6c-1.7,0-3-1.3-3-3c0-1.3,0.8-2.4,1.9-2.8c0.3-0.1,0.7-0.2,1.1-0.2
		c1.5,0,2.7,1,3,2.4c0,0.2,0,0.4,0,0.6C79.2,78.3,77.9,79.6,76.2,79.6z"/>
	<path id="svg_6" d="M23.5,16c-4.7,0-8.6,3.9-8.6,8.6c0,1.6,0.5,3.1,1.2,4.4c0.4,0.7,1,1.4,1.6,1.9c0.6,0.6,1.3,1,2.1,1.4
		c1.1,0.5,2.3,0.8,3.6,0.8c1.6,0,3.1-0.5,4.4-1.2c1.1-0.7,2-1.5,2.7-2.6c0.9-1.4,1.5-3,1.5-4.8C32.1,19.9,28.2,16,23.5,16z
		 M25.1,27.2c-0.5,0.3-1,0.5-1.6,0.5c-0.8,0-1.4-0.2-2-0.7l-0.2-0.2c-0.5-0.5-0.8-1.3-0.8-2.1c0-1.7,1.3-3,3-3s3,1.3,3,3
		c0,0.6-0.2,1.1-0.5,1.6C25.8,26.6,25.5,26.9,25.1,27.2z"/>
	<path id="svg_11" d="M23.4,68.1c-2,0-3.8,0.7-5.3,1.9c-2,1.6-3.3,4-3.3,6.7c0,4.7,3.9,8.6,8.6,8.6c1.1,0,2.2-0.2,3.2-0.6
		c3.1-1.3,5.4-4.4,5.4-8C32,72,28.1,68.1,23.4,68.1z M23.4,79.7c-1.7,0-3-1.3-3-3c0-1,0.4-1.8,1.1-2.4c0.5-0.4,1.2-0.6,1.9-0.6
		c1.7,0,3,1.3,3,3c0,1.3-0.8,2.4-1.9,2.8C24.1,79.6,23.8,79.7,23.4,79.7z"/>
	<path d="M30.5,25.7l-2.8-4.2c11.7-7.8,27.6-14.9,46.2-0.2l-3.1,3.9C54.9,12.7,42,18,30.5,25.7z"/>
	<rect x="56.8" y="35" transform="matrix(0.583 -0.8125 0.8125 0.583 -2.2538 70.5479)" width="21.6" height="5"/>
	<path d="M81.1,73.2l-4-3c0.9-1.1,1.1-1.9,1-2.2c-0.3-1.2-3.9-2.5-6.5-3.5c-4.5-1.7-9.6-3.7-11.9-7.8l4.4-2.4
		c1.4,2.5,5.6,4.2,9.3,5.6c4.4,1.7,8.5,3.3,9.5,6.9C83.6,68.6,82.9,70.9,81.1,73.2z"/>
	<path d="M40.4,91.8c-4.5,0-9.4-2.5-15.2-10l4-3.1c9.3,12,14,8.5,21.8,2.7c5.2-3.9,11.2-8.3,19.2-7.8l-0.3,5
		c-6.3-0.4-11.2,3.3-16,6.8C49.9,88.5,45.5,91.8,40.4,91.8z"/>
	<path d="M18.1,74.7C8,68.2,8.3,52,19,28.1l4.6,2c-9.4,21.1-10.4,35.4-2.7,40.3L18.1,74.7z"/>
</g>
</svg>
